<?xml version="1.0" encoding="windows-1252"?>
<!-- Generator: Adobe Illustrator 19.0.0, SVG Export Plug-In . SVG Version: 6.00 Build 0)  -->
<svg version="1.1" id="Layer_1" xmlns="http://www.w3.org/2000/svg" xmlns:xlink="http://www.w3.org/1999/xlink" x="0px" y="0px" viewBox="0 0 512 512" style="enable-background:new 0 0 512 512;" xml:space="preserve">
<g>
	<g>
		<path d="M273.744,181.479c3.41-4.117,5.27-9.241,5.267-14.648c0-12.688-10.323-23.012-23.011-23.012    c-12.688,0-23.011,10.323-23.011,23.012c0,5.554,1.979,10.654,5.268,14.634C234,247.265,199.74,348.258,71.213,476.785    l24.407,24.407c10.892-10.892,33.457-33.464,58.793-63.978h84.328V512h34.517v-74.787h84.33    c25.335,30.515,47.9,53.087,58.793,63.978l24.407-24.407C312.269,348.267,278.005,247.279,273.744,181.479z M238.74,402.697    h-57.299c5.206-7.076,10.402-14.411,15.514-21.985c16.638-24.65,30.562-48.967,41.785-72.887V402.697z M273.257,402.697v-94.872    c11.223,23.92,25.147,48.237,41.785,72.887c5.112,7.574,10.308,14.909,15.514,21.985H273.257z"/>
	</g>
</g>
<g>
	<g>
		<path d="M255.999,0C164.008,0,89.167,74.841,89.167,166.831c0,55.677,27.362,107.045,73.37,138.187    c6.027-10.798,11.243-21.173,15.737-31.11c-34.312-24.906-54.591-64.398-54.591-107.077c0-72.958,59.356-132.315,132.315-132.315    s132.315,59.356,132.315,132.315c0,42.68-20.279,82.172-54.592,107.078c4.494,9.937,9.711,20.312,15.737,31.11    c46.009-31.142,73.371-82.51,73.371-138.188C422.83,74.841,347.99,0,255.999,0z"/>
	</g>
</g>
<g>
	<g>
		<path d="M255.999,69.034c-53.926,0-97.798,43.872-97.798,97.798c0,28.184,12.095,54.833,33.241,73.431    c4.939-15.023,8.16-28.765,10.13-41.179c-5.732-9.656-8.854-20.756-8.854-32.253c0-34.893,28.388-63.281,63.281-63.281    s63.281,28.388,63.281,63.281c0,11.496-3.121,22.598-8.854,32.253c1.97,12.413,5.19,26.157,10.128,41.18    c21.146-18.598,33.242-45.248,33.242-73.432C353.797,112.906,309.924,69.034,255.999,69.034z"/>
	</g>
</g>
<g>
</g>
<g>
</g>
<g>
</g>
<g>
</g>
<g>
</g>
<g>
</g>
<g>
</g>
<g>
</g>
<g>
</g>
<g>
</g>
<g>
</g>
<g>
</g>
<g>
</g>
<g>
</g>
<g>
</g>
</svg>